HIERARCHY
ROOT Hips
{
	OFFSET 0.00000 0.00000 0.00000
	CHANNELS 6 Xposition Yposition Zposition Zrotation Yrotation Xrotation 
	JOINT RightUpLegDummy
	{
		OFFSET 0 0 0
		CHANNELS 3 Zrotation Yrotation Xrotation
		JOINT RightUpLeg
		{
			OFFSET -3.52197 -3.41223 0.04002
			CHANNELS 3 Zrotation Yrotation Xrotation
			JOINT RightLeg
			{
				OFFSET 0.00006 -17.42390 1.60435
				CHANNELS 3 Zrotation Yrotation Xrotation
				JOINT RightFoot
				{
					OFFSET 0.06153 -16.50078 -1.63901
					CHANNELS 3 Zrotation Yrotation Xrotation
					JOINT RightToes
					{
						OFFSET 0.00298 -1.73825 3.34613
						CHANNELS 3 Zrotation Yrotation Xrotation
						End Site
						{
							OFFSET 0.00480 -0.05416 3.85043
						}
					}
				}
			}
		}
	}
	JOINT SpineDummy
	{
		OFFSET 0 0 0
		CHANNELS 3 Zrotation Yrotation Xrotation
		JOINT Spine
		{
			OFFSET 0.00000 4.68130 0.00000
			CHANNELS 3 Zrotation Yrotation Xrotation
			JOINT Spine1
			{
				OFFSET -0.00000 10.10138 0.05002
				CHANNELS 3 Zrotation Yrotation Xrotation
				JOINT HEadDummy
				{
					OFFSET 0 0 0
					CHANNELS 3 Zrotation Yrotation Xrotation
					JOINT Head
					{
						OFFSET -0.00000 3.43865 0.00438
						CHANNELS 3 Zrotation Yrotation Xrotation
						End Site
						{
							OFFSET -0.11417 5.02924 0.98962
						}
					}
				}
				JOINT LeftShoulder1Dummy
				{
					OFFSET 0 0 0
					CHANNELS 3 Zrotation Yrotation Xrotation
					JOINT LeftShoulder1
					{
						OFFSET 3.53937 -0.14262 -0.08662
						CHANNELS 3 Zrotation Yrotation Xrotation
						JOINT LeftArm
						{
							OFFSET 4.04833 -0.00133 0.12681
							CHANNELS 3 Zrotation Yrotation Xrotation
							JOINT LeftForeArm
							{
								OFFSET 10.33880 -0.01036 -0.55515
								CHANNELS 3 Zrotation Yrotation Xrotation
								JOINT LeftHand
								{
									OFFSET 8.69677 0.07543 0.40060
									CHANNELS 3 Zrotation Yrotation Xrotation
									End Site
									{
										OFFSET 5.28377 -0.21905 0.59205
									}
								}
							}
						}
					}
				}
				JOINT RightShoulderDummy
				{
					OFFSET 0 0 0
					CHANNELS 3 Zrotation Yrotation Xrotation
					JOINT RightShoulder
					{
						OFFSET -3.53937 -0.14262 -0.08660
						CHANNELS 3 Zrotation Yrotation Xrotation
						JOINT RightArm
						{
							OFFSET -4.04833 -0.00133 0.12683
							CHANNELS 3 Zrotation Yrotation Xrotation
							JOINT RightForeArm
							{
								OFFSET -10.37987 -0.01039 -0.55511
								CHANNELS 3 Zrotation Yrotation Xrotation
								JOINT RightHand
								{
									OFFSET -8.67398 0.07538 0.40058
									CHANNELS 3 Zrotation Yrotation Xrotation
									End Site
									{
										OFFSET -5.24810 -0.21916 0.59204
									}
								}
							}
						}
					}
				}
			}
		}
	}
	JOINT LeftUpLegDummy
	{
		OFFSET 0 0 0
		CHANNELS 3 Zrotation Yrotation Xrotation
		JOINT LeftUpLeg
		{
			OFFSET 3.52197 -3.41223 0.04002
			CHANNELS 3 Zrotation Yrotation Xrotation
			JOINT LeftLeg
			{
				OFFSET -0.00012 -17.42399 1.60337
				CHANNELS 3 Zrotation Yrotation Xrotation
				JOINT LeftFoot
				{
					OFFSET -0.09972 -16.50070 -1.63802
					CHANNELS 3 Zrotation Yrotation Xrotation
					JOINT LeftToes
					{
						OFFSET -0.01575 -1.73823 3.34611
						CHANNELS 3 Zrotation Yrotation Xrotation
						End Site
						{
							OFFSET 0.03150 -0.01868 3.85031
						}
					}
				}
			}
		}
	}
}
MOTION
Frames: 19
Frame Time: 0.033333
-46.3742 39.8272 74.4598 179.6470 6.7504 176.7640 0.0000 0.0000 0.0000 3.2424 -0.7942 0.5864 -0.8886 -2.4847 5.9513 -4.7330 0.2785 -4.0026 0.0000 -0.0000 -0.0000 0.0000 0.0000 0.0000 -1.4865 0.2738 2.3998 4.4591 -0.5702 1.5183 -0.0000 0.0000 -0.0000 3.6912 -3.8099 -7.2423 -0.0000 0.0000 -0.0000 -34.5440 -2.4367 2.4108 -45.2113 -15.1358 -16.9317 -10.2825 5.0425 51.0399 15.9191 -1.0807 -0.8783 -0.0000 0.0000 -0.0000 34.9555 5.1802 3.5586 39.7682 5.3909 -16.0221 10.9117 -0.0004 24.8861 -12.5771 1.0211 -0.6859 0.0000 0.0000 0.0000 2.3435 2.1011 1.8871 0.5765 0.4846 6.4644 1.1161 -0.0366 -5.0201 0.0000 0.0000 -0.0000
-46.3633 39.8250 74.4598 179.6530 6.6687 176.6700 0.0000 0.0000 0.0000 3.2614 -0.8110 0.6838 -0.8924 -2.5492 5.9696 -4.7320 0.2784 -4.0163 0.0000 -0.0000 -0.0000 0.0000 0.0000 0.0000 -1.2326 0.1886 2.5270 3.9378 -0.5571 1.3637 -0.0000 0.0000 -0.0000 4.0509 -3.9825 -7.0294 -0.0000 0.0000 -0.0000 -34.0933 -2.6530 2.4702 -45.3911 -14.8961 -16.7858 -10.3673 5.0497 50.7695 15.9221 -0.9894 -0.8666 -0.0000 0.0000 -0.0000 35.4054 5.2486 3.6267 39.5641 5.2713 -16.1186 10.9504 -0.0606 24.3815 -12.3502 1.2692 -0.6977 0.0000 0.0000 0.0000 2.3805 2.1306 1.9443 0.5418 0.3511 6.5335 1.0652 -0.0334 -5.0691 0.0000 0.0000 -0.0000
-46.3439 39.8211 74.4591 179.7010 6.5856 176.5540 0.0000 0.0000 0.0000 3.3549 -0.7812 0.8309 -0.9272 -2.6637 5.9562 -4.7778 0.2814 -4.0174 0.0000 -0.0000 -0.0000 0.0000 0.0000 0.0000 -0.7605 0.0246 2.5552 3.1319 -0.5818 1.4167 -0.0000 0.0000 -0.0000 4.6192 -3.7478 -6.7996 -0.0000 0.0000 -0.0000 -33.4463 -2.8442 2.5056 -45.6685 -14.8746 -16.8353 -10.3078 5.0455 50.9317 15.9734 -1.5804 -0.9468 -0.0000 0.0000 -0.0000 35.6598 5.2691 3.6580 39.7120 5.3806 -16.2912 10.9685 -0.2583 23.8092 -11.9011 1.4860 -0.6928 0.0000 0.0000 0.0000 2.4529 2.1435 1.9838 0.5583 0.2160 6.7123 0.9329 -0.0249 -5.1977 0.0000 0.0000 -0.0000
-46.3180 39.8170 74.4534 179.7870 6.6247 176.5120 0.0000 0.0000 0.0000 3.5162 -0.6895 0.9418 -0.9718 -2.7316 5.8745 -4.8570 0.2864 -3.9958 0.0000 -0.0000 -0.0000 0.0000 0.0000 0.0000 -0.4205 -0.0870 2.4194 2.7263 -0.6329 1.6841 -0.0000 0.0000 -0.0000 4.9652 -3.1771 -6.7573 -0.0000 0.0000 -0.0000 -33.2197 -2.7990 2.4732 -45.7431 -15.2179 -17.1828 -10.0710 5.0246 51.7007 16.0480 -2.6841 -1.0967 -0.0000 0.0000 -0.0000 35.4348 5.2079 3.6125 40.1445 5.6226 -16.4176 10.9172 -0.4171 23.8229 -11.9138 0.9904 -0.6455 0.0000 0.0000 0.0000 2.5704 2.1700 1.9776 0.6063 0.1905 6.8956 0.7724 -0.0145 -5.3582 0.0000 0.0000 -0.0000
-46.2822 39.8152 74.4379 179.8620 6.7251 176.5120 0.0000 0.0000 0.0000 3.6818 -0.5839 1.0454 -1.0124 -2.7568 5.7379 -4.8863 0.2882 -3.9651 0.0000 -0.0000 -0.0000 0.0000 0.0000 0.0000 -0.4411 -0.1162 2.3070 2.9074 -0.7026 1.8242 -0.0000 0.0000 -0.0000 4.9701 -2.8947 -6.8395 -0.0000 0.0000 -0.0000 -33.3922 -2.6530 2.4267 -45.6484 -15.4082 -17.3806 -9.9673 5.0134 52.0999 16.0890 -3.2474 -1.1740 -0.0000 0.0000 -0.0000 35.1804 5.1584 3.5694 40.3332 5.6285 -16.4778 10.8327 -0.3945 24.2443 -12.4049 0.1698 -0.5918 0.0000 0.0000 0.0000 2.7175 2.2516 2.0052 0.6068 0.1837 6.9634 0.6761 -0.0083 -5.4648 0.0000 0.0000 -0.0000
-46.2407 39.8153 74.4251 179.8870 6.7980 176.5500 0.0000 0.0000 0.0000 3.8092 -0.4750 1.0884 -1.0763 -2.7904 5.6257 -4.8440 0.2854 -3.9331 0.0000 -0.0000 -0.0000 0.0000 0.0000 0.0000 -0.7215 -0.1225 2.2333 3.3472 -0.7882 1.7918 -0.0000 0.0000 -0.0000 4.8256 -3.0289 -6.9455 -0.0000 0.0000 -0.0000 -33.5617 -2.5982 2.4156 -45.6041 -15.1866 -17.1351 -10.1711 5.0289 51.5213 16.0224 -2.9932 -1.1356 -0.0000 0.0000 -0.0000 35.1272 5.1636 3.5669 40.2416 5.4395 -16.5243 10.7787 -0.3099 24.4950 -12.6312 0.1557 -0.6008 0.0000 0.0000 0.0000 2.8213 2.3180 2.0228 0.5957 0.1831 6.9336 0.6259 -0.0051 -5.4882 0.0000 0.0000 -0.0000
-46.2060 39.8161 74.4315 179.8480 6.9415 176.7080 0.0000 0.0000 0.0000 3.8696 -0.3558 0.8961 -1.1478 -2.7384 5.6383 -4.8174 0.2836 -3.9036 0.0000 -0.0000 -0.0000 0.0000 0.0000 0.0000 -1.0559 -0.0844 2.0762 3.8058 -0.8288 1.7718 -0.0000 0.0000 -0.0000 4.6448 -3.2367 -7.0764 -0.0000 0.0000 -0.0000 -33.7295 -2.5974 2.4257 -45.5576 -15.0978 -16.9511 -10.3364 5.0439 50.9733 15.9188 -2.8239 -1.1058 -0.0000 0.0000 -0.0000 34.9473 5.1503 3.5456 40.2909 5.3950 -16.5448 10.7775 -0.3594 24.4834 -12.3232 1.1526 -0.6843 0.0000 0.0000 0.0000 2.8115 2.2838 1.8957 0.6632 0.3642 6.8674 0.5047 0.0027 -5.4574 0.0000 0.0000 -0.0000
-46.1838 39.8159 74.4564 179.7480 7.2929 176.9510 0.0000 0.0000 0.0000 3.8377 -0.2643 0.4824 -1.1613 -2.4595 5.8112 -4.8593 0.2863 -3.9029 0.0000 -0.0000 -0.0000 0.0000 0.0000 0.0000 -1.4047 0.0814 1.9628 4.3584 -0.7517 1.6654 -0.0000 0.0000 -0.0000 4.3157 -3.4708 -7.2949 -0.0000 0.0000 -0.0000 -34.2096 -2.5231 2.4253 -45.2895 -15.5378 -17.3371 -10.1408 5.0260 51.6278 15.9437 -3.3125 -1.1715 -0.0000 0.0000 -0.0000 34.4419 5.0752 3.4708 40.5956 5.4998 -16.5152 10.7896 -0.5216 24.6011 -12.0011 2.0508 -0.7531 0.0000 0.0000 0.0000 2.7027 2.1876 1.6884 0.7914 0.8059 6.7581 0.3138 0.0150 -5.3989 0.0000 0.0000 -0.0000
-46.1637 39.8133 74.4779 179.6330 7.7440 177.0570 0.0000 0.0000 0.0000 3.7725 -0.2182 0.1853 -1.1314 -2.0695 6.0412 -4.8991 0.2889 -3.9466 0.0000 -0.0000 -0.0000 0.0000 0.0000 0.0000 -1.7226 0.3137 2.1294 4.8756 -0.5919 1.3079 -0.0000 0.0000 -0.0000 3.9125 -3.8434 -7.4603 -0.0000 0.0000 -0.0000 -34.8363 -2.4294 2.4256 -44.8874 -15.8282 -17.6255 -10.0006 5.0016 52.4652 16.0773 -3.6888 -1.2312 -0.0000 0.0000 -0.0000 34.0489 5.0127 3.4116 40.7924 5.4743 -16.5135 10.7702 -0.6324 24.9190 -12.0535 1.9699 -0.7482 0.0000 0.0000 0.0000 2.5898 2.1213 1.6556 0.9054 1.3044 6.6273 0.2003 0.0223 -5.3398 0.0000 0.0000 -0.0000
-46.1329 39.8091 74.4787 179.5780 8.0468 176.9280 0.0000 0.0000 0.0000 3.7945 -0.1689 0.2496 -1.1475 -1.8495 6.1648 -4.8885 0.2884 -4.0005 0.0000 -0.0000 -0.0000 0.0000 0.0000 0.0000 -1.7716 0.4301 2.4311 4.8710 -0.4603 1.0034 -0.0000 0.0000 -0.0000 3.7939 -4.0669 -7.4821 -0.0000 0.0000 -0.0000 -35.0165 -2.4774 2.4560 -44.6991 -15.1599 -16.7300 -10.5635 5.0247 51.4962 16.0612 -3.1101 -1.1538 -0.0000 0.0000 -0.0000 34.2564 5.0452 3.4427 40.6528 5.3125 -16.5874 10.7445 -0.6372 24.9267 -12.3050 1.2748 -0.6957 0.0000 0.0000 0.0000 2.5554 2.0898 1.8553 1.0116 1.6230 6.5917 0.1992 0.0224 -5.3357 0.0000 0.0000 -0.0000
-46.0919 39.8045 74.4667 179.5900 8.1515 176.7680 0.0000 0.0000 0.0000 3.8934 -0.1286 0.4602 -1.1741 -1.8161 6.1444 -4.9250 0.2908 -4.0220 0.0000 -0.0000 -0.0000 0.0000 0.0000 0.0000 -1.4319 0.4067 2.5237 4.1919 -0.3653 1.0841 -0.0000 0.0000 -0.0000 4.1293 -3.8878 -7.4611 -0.0000 0.0000 -0.0000 -34.5885 -2.6714 2.5086 -44.8496 -14.0028 -15.1049 -11.4740 5.0844 49.1568 15.8668 -2.1056 -1.0087 -0.0000 0.0000 -0.0000 34.8798 5.1409 3.5358 40.3893 5.2070 -16.6128 10.7874 -0.5853 24.3542 -12.6161 0.7707 -0.6628 0.0000 0.0000 0.0000 2.5877 2.0439 2.0314 1.1356 1.7613 6.6835 0.1666 0.0245 -5.4005 0.0000 0.0000 -0.0000
-46.0498 39.8002 74.4600 179.5760 8.2033 176.7970 0.0000 0.0000 0.0000 3.8958 -0.2196 0.4494 -1.0464 -1.7022 6.1299 -5.1070 0.3026 -4.0375 0.0000 -0.0000 -0.0000 0.0000 0.0000 0.0000 -1.0029 0.4142 2.4492 3.3977 -0.2178 1.2356 -0.0000 0.0000 -0.0000 4.5218 -3.7853 -7.5204 -0.0000 0.0000 -0.0000 -33.9910 -2.8379 2.5379 -45.1820 -13.6635 -14.4752 -11.7522 5.1099 48.1612 15.7620 -1.8924 -0.9743 -0.0000 0.0000 -0.0000 35.3037 5.1999 3.5974 40.3081 5.1088 -16.5076 10.8869 -0.4833 23.7713 -12.9024 0.7354 -0.6744 0.0000 0.0000 0.0000 2.6102 1.9928 1.9803 1.2095 1.8400 6.7776 0.0709 0.0306 -5.4612 0.0000 0.0000 -0.0000
-46.0115 39.7970 74.4591 179.4750 8.2607 176.9600 0.0000 0.0000 0.0000 3.7236 -0.4760 0.2163 -0.7492 -1.4152 6.2198 -5.3585 0.3188 -4.0863 0.0000 -0.0000 -0.0000 0.0000 0.0000 0.0000 -0.8662 0.4943 2.4599 3.0759 -0.0702 1.0529 -0.0000 0.0000 -0.0000 4.6240 -4.0931 -7.5036 -0.0000 0.0000 -0.0000 -33.5963 -2.8357 2.5117 -45.5192 -14.5767 -15.5500 -11.1108 5.0711 49.7463 15.8584 -2.6866 -1.0837 -0.0000 0.0000 -0.0000 35.2690 5.1843 3.5880 40.4433 4.9271 -16.4297 10.9206 -0.3699 23.8966 -12.7830 1.0359 -0.6987 0.0000 0.0000 0.0000 2.5729 1.9783 1.8162 1.1829 1.8986 6.7498 0.0986 0.0288 -5.4401 0.0000 0.0000 -0.0000
-45.9743 39.7967 74.4463 179.3520 8.2331 177.0520 0.0000 0.0000 0.0000 3.5330 -0.7293 0.0906 -0.5002 -1.2022 6.2903 -5.5261 0.3297 -4.1382 0.0000 -0.0000 -0.0000 0.0000 0.0000 0.0000 -1.0212 0.4641 2.4719 3.1989 -0.1152 0.8504 -0.0000 0.0000 -0.0000 4.5125 -4.2321 -7.3261 -0.0000 0.0000 -0.0000 -33.4472 -2.6990 2.4483 -45.7117 -15.8069 -17.2450 -10.1004 5.0124 52.0830 15.9976 -3.5771 -1.2103 -0.0000 0.0000 -0.0000 35.0550 5.1507 3.5552 40.5755 4.9069 -16.5066 10.8455 -0.4100 24.5262 -12.1888 1.4364 -0.7049 0.0000 0.0000 0.0000 2.4949 1.9651 1.7812 1.1474 1.9306 6.6083 0.3237 0.0143 -5.3669 0.0000 0.0000 -0.0000
-45.9352 39.8023 74.4116 179.2950 8.0863 176.9880 0.0000 0.0000 0.0000 3.4885 -0.8257 0.2996 -0.4480 -1.2490 6.1364 -5.5873 0.3336 -4.1180 0.0000 -0.0000 -0.0000 0.0000 0.0000 0.0000 -1.2216 0.2500 2.3176 3.4648 -0.3871 1.0708 -0.0000 0.0000 -0.0000 4.3923 -3.7116 -7.2058 -0.0000 0.0000 -0.0000 -33.6051 -2.5411 2.3956 -45.6065 -16.3205 -17.9995 -9.6437 4.9893 52.9824 16.0173 -3.8128 -1.2428 -0.0000 0.0000 -0.0000 34.9250 5.1487 3.5429 40.5212 5.2385 -16.5670 10.7925 -0.6623 24.8003 -11.8653 1.5675 -0.6982 0.0000 0.0000 0.0000 2.4328 1.9065 1.9894 1.2055 1.9497 6.3769 0.5202 0.0017 -5.3037 0.0000 0.0000 -0.0000
-45.8966 39.8106 74.3669 179.3090 7.9301 176.8530 0.0000 0.0000 0.0000 3.5590 -0.8224 0.6888 -0.4888 -1.4081 5.8335 -5.6342 0.3364 -4.0461 0.0000 -0.0000 -0.0000 0.0000 0.0000 0.0000 -1.3505 0.0630 2.2279 3.7704 -0.6454 1.3693 -0.0000 0.0000 -0.0000 4.2471 -3.1788 -7.3050 -0.0000 0.0000 -0.0000 -34.0805 -2.4472 2.3872 -45.2638 -15.9083 -17.3522 -10.0817 5.0097 52.1702 16.0107 -3.4386 -1.1931 -0.0000 0.0000 -0.0000 34.7780 5.1442 3.5282 40.3769 5.5644 -16.4380 10.8541 -0.8645 24.4955 -12.3372 1.2328 -0.6933 0.0000 0.0000 0.0000 2.4275 1.8488 2.3179 1.3139 1.9581 6.1254 0.4831 0.0041 -5.2681 0.0000 0.0000 -0.0000
-45.8646 39.8158 74.3319 179.3340 7.8669 176.7790 0.0000 0.0000 0.0000 3.6232 -0.8257 0.9399 -0.4835 -1.4766 5.6341 -5.7037 0.3407 -4.0048 0.0000 -0.0000 -0.0000 0.0000 0.0000 0.0000 -1.3909 0.0985 2.4259 4.0199 -0.6545 1.2201 -0.0000 0.0000 -0.0000 4.1358 -3.3016 -7.4983 -0.0000 0.0000 -0.0000 -34.4643 -2.4596 2.4153 -45.0638 -15.0984 -16.0471 -10.8967 5.0444 50.7299 16.1101 -2.9045 -1.1302 -0.0000 0.0000 -0.0000 34.4642 5.0855 3.4769 40.4120 5.4679 -16.2979 10.9126 -0.7290 24.2725 -12.9321 0.8035 -0.6831 0.0000 0.0000 0.0000 2.4723 1.8522 2.5426 1.3674 1.9513 5.9569 0.3302 0.0139 -5.2331 0.0000 0.0000 -0.0000
-45.8422 39.8153 74.3148 179.3380 7.8653 176.8290 0.0000 0.0000 0.0000 3.6465 -0.8266 0.9134 -0.4568 -1.4806 5.6444 -5.7477 0.3436 -4.0299 0.0000 -0.0000 -0.0000 0.0000 0.0000 0.0000 -1.2787 0.2564 2.6288 3.9462 -0.4709 0.8857 -0.0000 0.0000 -0.0000 4.2574 -3.7161 -7.5137 -0.0000 0.0000 -0.0000 -34.3089 -2.5601 2.4463 -45.2601 -14.7491 -15.2536 -11.3469 5.0621 49.9619 16.2998 -2.6484 -1.1098 -0.0000 0.0000 -0.0000 34.1499 4.9968 3.4140 40.6611 5.1719 -16.4258 10.8317 -0.4095 24.5278 -12.8776 0.7176 -0.6711 0.0000 0.0000 0.0000 2.5244 1.8929 2.5339 1.3465 1.9233 5.9351 0.2796 0.0172 -5.2185 0.0000 0.0000 -0.0000
-45.8244 39.8112 74.3088 179.3210 7.8301 176.9440 0.0000 0.0000 0.0000 3.6592 -0.7989 0.7525 -0.4711 -1.5387 5.7448 -5.7485 0.3438 -4.0893 0.0000 -0.0000 -0.0000 0.0000 0.0000 0.0000 -1.0816 0.3403 2.5762 3.5935 -0.3186 0.8232 -0.0000 0.0000 -0.0000 4.5880 -3.9769 -7.4248 -0.0000 0.0000 -0.0000 -33.8654 -2.6876 2.4700 -45.5575 -15.2603 -15.6600 -11.0653 5.0457 50.6135 16.5324 -2.8717 -1.1565 -0.0000 0.0000 -0.0000 34.1271 4.9582 3.3965 40.7657 5.0950 -16.7191 10.7038 -0.2751 24.7807 -12.5461 0.8304 -0.6650 0.0000 0.0000 0.0000 2.5532 1.9179 2.3774 1.2981 1.8456 6.0116 0.3201 0.0146 -5.2622 0.0000 0.0000 -0.0000
